<?xml version="1.0" standalone="no"?>
<!DOCTYPE svg PUBLIC "-//W3C//DTD SVG 20010904//EN"
 "http://www.w3.org/TR/2001/REC-SVG-20010904/DTD/svg10.dtd">
<svg version="1.0" xmlns="http://www.w3.org/2000/svg"
 width="1208.000000pt" height="435.000000pt" viewBox="0 0 1208.000000 435.000000"
 preserveAspectRatio="xMidYMid meet">

<g transform="translate(0.000000,435.000000) scale(0.100000,-0.100000)"
fill="#765F4D" stroke="none">
<path d="M11646 4073 c-2 -2 -59 -8 -127 -13 -76 -6 -166 -21 -234 -39 -105
-27 -518 -169 -655 -224 -36 -15 -92 -35 -125 -46 -33 -11 -91 -33 -130 -49
-38 -16 -113 -43 -165 -61 -52 -18 -108 -39 -125 -46 -47 -20 -154 -61 -215
-80 -30 -10 -64 -21 -75 -26 -81 -33 -310 -120 -355 -134 -89 -28 -205 -72
-355 -134 -27 -11 -79 -31 -115 -45 -36 -14 -78 -30 -95 -37 -16 -7 -32 -13
-35 -14 -3 -1 -12 -4 -20 -8 -66 -26 -160 -37 -311 -37 -200 0 -327 15 -459
55 -127 39 -144 29 -47 -27 62 -36 199 -88 230 -88 26 0 111 -31 119 -44 13
-19 -47 -62 -114 -80 -35 -9 -106 -30 -158 -46 -52 -16 -120 -34 -150 -41 -62
-13 -65 -14 -280 -71 -85 -22 -166 -42 -180 -45 -14 -3 -59 -15 -100 -28 -98
-30 -226 -66 -375 -105 -66 -18 -154 -43 -195 -55 -41 -13 -88 -26 -105 -29
-27 -6 -136 -35 -415 -111 -47 -13 -114 -31 -150 -41 -36 -9 -90 -25 -121 -35
-31 -10 -92 -25 -135 -34 -43 -9 -146 -34 -229 -55 -82 -21 -172 -43 -200 -49
-27 -6 -75 -18 -105 -27 -30 -9 -86 -22 -125 -29 -38 -7 -97 -22 -130 -33 -33
-11 -76 -23 -95 -27 -134 -28 -177 -37 -272 -58 -59 -14 -115 -28 -125 -32
-99 -39 -201 -48 -338 -29 -55 8 -154 21 -220 29 -66 8 -172 22 -235 31 -63 9
-126 17 -140 19 -14 2 -45 8 -70 14 -25 6 -65 11 -90 11 -25 0 -83 6 -130 14
-47 9 -146 22 -220 31 -74 9 -191 26 -260 37 -69 11 -147 22 -175 25 -27 3
-81 11 -120 18 -38 7 -73 11 -78 8 -4 -2 -45 2 -90 11 -76 14 -294 48 -397 61
-25 3 -61 8 -80 11 -19 3 -87 11 -150 20 -63 8 -140 19 -170 24 -30 5 -82 12
-114 15 -33 3 -62 8 -66 10 -3 2 -53 9 -110 15 -58 6 -139 17 -180 25 -110 20
-314 39 -335 32 -30 -12 1 -35 63 -47 31 -7 84 -18 117 -26 33 -8 114 -21 180
-29 66 -8 131 -17 145 -19 67 -12 253 -36 315 -41 39 -3 102 -12 140 -20 39
-7 139 -21 223 -30 84 -9 176 -20 205 -26 29 -6 93 -15 142 -19 50 -5 140 -16
200 -25 61 -8 154 -20 207 -25 54 -5 119 -15 145 -21 62 -15 76 -16 221 -28
67 -5 126 -12 130 -15 5 -3 37 -8 73 -11 35 -3 108 -13 163 -21 54 -8 100 -13
103 -10 2 2 30 -2 61 -9 31 -7 100 -16 152 -20 52 -3 118 -10 145 -15 28 -5
104 -17 170 -26 122 -17 165 -28 135 -37 -43 -12 -318 -79 -337 -82 -12 -2
-37 -8 -55 -13 -18 -6 -51 -13 -73 -17 -22 -3 -67 -14 -100 -24 -33 -10 -85
-24 -115 -30 -30 -7 -77 -18 -105 -26 -94 -27 -210 -57 -250 -65 -22 -4 -85
-18 -140 -30 -87 -19 -118 -21 -240 -16 -77 3 -153 8 -170 11 -16 2 -77 7
-135 9 -58 3 -132 7 -165 10 -33 3 -145 10 -250 16 -104 6 -210 13 -235 15
-25 3 -83 7 -130 10 -47 2 -146 9 -220 14 -74 6 -216 15 -315 21 -185 11 -409
25 -550 35 -44 3 -138 8 -209 11 -71 3 -132 5 -135 6 -37 4 -62 -4 -59 -19 5
-27 118 -53 258 -59 69 -3 132 -8 140 -10 15 -5 203 -19 385 -29 50 -3 142 -9
205 -15 63 -5 188 -12 277 -14 90 -3 166 -7 171 -10 4 -2 61 -6 127 -7 66 -1
138 -6 160 -10 22 -4 108 -10 190 -14 83 -3 195 -11 250 -16 55 -5 142 -11
193 -13 51 -2 95 -6 98 -9 6 -6 -61 -27 -88 -27 -16 0 -118 -24 -222 -51 -22
-6 -46 -12 -55 -14 -38 -8 -271 -64 -326 -78 -106 -28 -268 -68 -350 -87 -44
-10 -103 -26 -132 -34 -29 -8 -67 -17 -85 -20 -94 -15 -355 -89 -372 -105 -18
-18 -18 -19 3 -26 30 -9 227 27 411 76 58 15 128 32 155 38 104 21 142 30 205
50 36 10 99 27 140 36 41 9 131 32 200 50 183 49 207 56 295 75 103 24 189 46
295 78 79 24 99 25 275 25 105 0 204 -4 220 -8 17 -3 131 -9 255 -12 124 -2
251 -8 282 -12 31 -4 150 -9 264 -10 115 -1 214 -6 221 -10 9 -5 -16 -18 -69
-36 -46 -15 -110 -39 -142 -52 -33 -14 -67 -26 -77 -28 -20 -4 -175 -57 -369
-126 -80 -28 -185 -62 -234 -75 -49 -14 -94 -28 -100 -33 -6 -4 -65 -25 -131
-45 -66 -21 -248 -80 -405 -133 -157 -52 -292 -96 -300 -98 -8 -2 -71 -21
-140 -43 -69 -21 -179 -56 -245 -77 -66 -20 -167 -54 -225 -76 -58 -21 -139
-47 -180 -58 -41 -11 -106 -31 -145 -44 -38 -14 -151 -51 -250 -82 -99 -32
-214 -70 -255 -86 -41 -15 -95 -32 -120 -39 -51 -14 -110 -47 -110 -62 0 -23
144 -2 270 39 69 23 186 60 260 83 294 92 423 134 600 197 102 35 208 71 235
78 41 11 187 59 255 83 8 3 44 13 80 23 36 10 148 46 250 81 102 35 196 64
210 65 13 1 34 7 45 12 43 22 262 101 306 110 26 6 82 24 125 41 43 16 82 30
86 30 5 0 27 9 51 20 52 24 203 70 232 70 11 0 25 4 31 9 12 12 318 126 404
151 36 10 108 35 160 55 l95 37 191 -6 c105 -3 203 -10 219 -16 15 -6 62 -10
104 -10 42 0 92 0 111 -1 19 0 208 0 419 1 211 1 395 -1 410 -4 14 -3 116 -8
226 -11 110 -4 211 -8 225 -9 14 -2 108 -7 210 -10 102 -4 212 -9 245 -11 269
-20 493 -30 900 -39 521 -12 541 -15 510 -76 -8 -16 -36 -46 -62 -67 -59 -48
-110 -103 -172 -185 -45 -60 -71 -118 -53 -118 15 0 101 61 124 88 50 58 248
208 338 256 25 13 81 36 125 52 l80 29 310 -2 c171 -2 366 -5 435 -8 69 -3
188 -8 265 -10 77 -3 205 -7 285 -10 80 -3 244 -7 365 -10 121 -3 272 -8 335
-11 149 -7 300 -11 710 -18 304 -5 339 -4 380 12 63 25 58 42 -20 62 -36 10
-108 29 -160 43 -52 14 -129 30 -170 36 -93 13 -465 29 -830 36 -151 3 -363 8
-470 11 -328 9 -589 14 -960 19 -437 5 -435 5 -490 17 -50 11 -58 14 -145 51
-33 14 -78 32 -100 39 -97 30 -294 146 -385 226 -36 30 -60 41 -60 25 0 -29
171 -203 225 -230 33 -17 95 -72 95 -85 0 -4 -14 -15 -32 -24 -35 -18 -9 -20
-358 21 -323 38 -446 54 -483 61 -10 2 -71 8 -135 14 -64 6 -155 15 -202 20
-47 6 -132 15 -190 20 -58 5 -114 12 -125 14 -11 3 -51 8 -90 11 -38 3 -98 10
-133 16 -34 5 -93 12 -130 15 -77 5 -114 9 -272 29 -136 16 -219 25 -280 30
-25 2 -111 14 -192 26 -169 26 -173 34 -49 73 66 22 231 88 325 131 17 8 58
24 91 36 139 50 312 111 340 119 17 5 75 25 130 45 55 20 132 45 170 57 39 11
93 30 120 43 28 12 65 25 83 28 19 4 73 22 120 40 101 39 362 126 489 163 48
14 92 29 99 34 6 6 82 35 170 66 161 57 300 107 454 164 142 52 204 71 225 68
30 -4 24 -70 -12 -133 -51 -91 -103 -258 -103 -327 l1 -43 27 32 c27 32 32 41
93 168 85 179 237 371 357 450 49 32 189 93 267 115 33 9 74 22 90 29 76 32
390 146 481 176 56 18 110 38 120 44 11 6 60 24 109 40 84 28 243 85 325 116
102 38 586 211 825 294 100 35 131 47 190 72 44 19 126 49 201 74 43 14 83 30
89 34 5 5 28 14 50 21 22 7 56 21 76 31 41 20 101 78 93 90 -4 8 -51 9 -58 2z
m-3441 -1263 c-9 -14 -68 -41 -190 -86 -55 -20 -105 -40 -111 -45 -7 -6 -40
-18 -75 -28 -35 -10 -95 -30 -134 -44 -79 -28 -313 -104 -425 -137 -110 -32
-149 -46 -203 -69 -26 -11 -89 -35 -140 -52 -51 -17 -105 -37 -122 -44 -16 -7
-73 -27 -125 -45 -52 -17 -131 -49 -175 -70 -177 -86 -355 -153 -665 -252 -36
-11 -81 -27 -100 -35 -19 -9 -57 -21 -85 -29 -27 -7 -88 -26 -135 -42 -167
-59 -187 -62 -285 -52 -148 16 -177 20 -185 25 -4 2 -72 12 -151 20 -79 9
-164 21 -189 26 -25 6 -67 13 -95 16 -27 3 -54 9 -59 13 -8 8 53 30 84 30 8 0
44 9 80 21 36 11 119 31 185 45 137 28 412 98 605 153 104 31 306 83 470 121
19 5 68 18 109 29 40 11 83 22 95 24 11 2 28 7 36 10 34 13 231 66 305 82 44
10 112 28 150 40 70 23 111 34 215 56 61 13 284 74 430 119 52 16 149 40 215
55 66 14 176 43 245 65 69 21 156 44 193 51 38 6 87 17 110 25 52 16 131 18
122 4z m-3610 -980 c33 -5 98 -15 145 -24 47 -8 159 -24 250 -36 232 -30 234
-31 224 -39 -5 -4 -29 -13 -54 -21 -25 -7 -63 -20 -85 -30 -22 -10 -94 -37
-160 -60 -66 -23 -133 -48 -150 -55 -16 -7 -79 -30 -140 -50 l-110 -37 -165 6
c-91 4 -214 9 -275 11 -341 16 -567 26 -702 31 -84 4 -153 11 -153 15 0 5 19
13 43 20 23 6 67 19 97 29 30 10 82 23 115 30 33 6 89 20 125 30 100 29 228
61 300 75 67 13 154 38 200 57 14 5 45 14 70 18 25 5 79 17 120 29 78 21 165
21 305 1z m1060 -140 c83 -11 177 -23 210 -26 33 -3 69 -7 81 -9 11 -3 103
-14 205 -25 101 -11 209 -25 239 -30 30 -5 107 -14 170 -20 63 -5 156 -17 205
-25 50 -8 131 -17 180 -20 50 -4 108 -11 130 -16 22 -5 69 -9 104 -9 35 0 103
-7 150 -15 211 -36 282 -45 348 -45 38 0 112 -9 164 -20 52 -11 108 -20 125
-20 17 0 46 -5 65 -11 19 -6 40 -13 48 -15 9 -3 11 -8 5 -14 -12 -12 -94 -14
-354 -11 -107 1 -281 12 -585 36 -208 16 -723 32 -840 25 -181 -10 -507 -4
-820 15 -172 11 -240 15 -340 20 -60 3 -157 8 -215 12 -58 3 -124 6 -147 5
-65 -1 -61 15 9 37 113 36 343 117 363 128 11 6 49 16 84 23 34 6 86 22 114
35 60 28 74 28 302 -5z"/>
</g>
</svg>
