<?xml version="1.0" encoding="utf-8"?>
<!-- Generator: Adobe Illustrator 25.2.0, SVG Export Plug-In . SVG Version: 6.00 Build 0)  -->
<svg version="1.1" id="レイヤー_1" xmlns="http://www.w3.org/2000/svg" xmlns:xlink="http://www.w3.org/1999/xlink" x="0px"
	 y="0px" viewBox="0 0 1208 435" style="enable-background:new 0 0 1208 435;" xml:space="preserve">
<style type="text/css">
	.st0{fill:#765F4D;}
</style>
<g transform="translate(0.000000,435.000000) scale(0.100000,-0.100000)">
	<path class="st0" d="M361,4071c-8-12,52-70,93-90c20-10,54-24,76-31s45-16,50-21c6-4,46-20,89-34c75-25,157-55,201-74
		c59-25,90-37,190-72c239-83,723-256,825-294c82-31,241-88,325-116c49-16,98-34,109-40c10-6,64-26,120-44c91-30,405-144,481-176
		c16-7,57-20,90-29c78-22,218-83,267-115c120-79,272-271,357-450c61-127,66-136,93-168l27-32l1,43c0,69-52,236-103,327
		c-36,63-42,129-12,133c21,3,83-16,225-68c154-57,293-107,454-164c88-31,164-60,170-66c7-5,51-20,99-34c127-37,388-124,489-163
		c47-18,101-36,120-40c18-3,55-16,83-28c27-13,81-32,120-43c38-12,115-37,170-57s113-40,130-45c28-8,201-69,340-119
		c33-12,74-28,91-36c94-43,259-109,325-131c124-39,120-47-49-73c-81-12-167-24-192-26c-61-5-144-14-280-30c-158-20-195-24-272-29
		c-37-3-96-10-130-15c-35-6-95-13-133-16c-39-3-79-8-90-11c-11-2-67-9-125-14s-143-14-190-20c-47-5-138-14-202-20s-125-12-135-14
		c-37-7-160-23-483-61c-349-41-323-39-358-21c-18,9-32,20-32,24c0,13,62,68,95,85c54,27,225,201,225,230c0,16-24,5-60-25
		c-91-80-288-196-385-226c-22-7-67-25-100-39c-87-37-95-40-145-51c-55-12-53-12-490-17c-371-5-632-10-960-19c-107-3-319-8-470-11
		c-365-7-737-23-830-36c-41-6-118-22-170-36s-124-33-160-43c-78-20-83-37-20-62c41-16,76-17,380-12c410,7,561,11,710,18
		c63,3,214,8,335,11s285,7,365,10c80,3,208,7,285,10c77,2,196,7,265,10s264,6,435,8l310,2l80-29c44-16,100-39,125-52
		c90-48,288-198,338-256c23-27,109-88,124-88c18,0-8,58-53,118c-62,82-113,137-172,185c-26,21-54,51-62,67c-31,61-11,64,510,76
		c407,9,631,19,900,39c33,2,143,7,245,11c102,3,196,8,210,10c14,1,115,5,225,9c110,3,212,8,226,11c15,3,199,5,410,4s400-1,419-1
		c19,1,69,1,111,1s89,4,104,10c16,6,114,13,219,16l191,6l95-37c52-20,124-45,160-55c86-25,392-139,404-151c6-5,20-9,31-9
		c29,0,180-46,232-70c24-11,46-20,51-20c4,0,43-14,86-30c43-17,99-35,125-41c44-9,263-88,306-110c11-5,32-11,45-12
		c14-1,108-30,210-65s214-71,250-81s72-20,80-23c68-24,214-72,255-83c27-7,133-43,235-78c177-63,306-105,600-197
		c74-23,191-60,260-83c126-41,270-62,270-39c0,15-59,48-110,62c-25,7-79,24-120,39c-41,16-156,54-255,86c-99,31-212,68-250,82
		c-39,13-104,33-145,44s-122,37-180,58c-58,22-159,56-225,76c-66,21-176,56-245,77c-69,22-132,41-140,43s-143,46-300,98
		c-157,53-339,112-405,133c-66,20-125,41-131,45c-6,5-51,19-100,33c-49,13-154,47-234,75c-194,69-349,122-369,126c-10,2-44,14-77,28
		c-32,13-96,37-142,52c-53,18-78,31-69,36c7,4,106,9,221,10c114,1,233,6,264,10s158,10,282,12c124,3,238,9,255,12c16,4,115,8,220,8
		c176,0,196-1,275-25c106-32,192-54,295-78c88-19,112-26,295-75c69-18,159-41,200-50s104-26,140-36c63-20,101-29,205-50
		c27-6,97-23,155-38c184-49,381-85,411-76c21,7,21,8,3,26c-17,16-278,90-372,105c-18,3-56,12-85,20s-88,24-132,34
		c-82,19-244,59-350,87c-55,14-288,70-326,78c-9,2-33,8-55,14c-104,27-206,51-222,51c-27,0-94,21-88,27c3,3,47,7,98,9s138,8,193,13
		s167,13,250,16c82,4,168,10,190,14s94,9,160,10s123,5,127,7c5,3,81,7,171,10c89,2,214,9,277,14c63,6,155,12,205,15
		c182,10,370,24,385,29c8,2,71,7,140,10c140,6,253,32,258,59c3,15-22,23-59,19c-3-1-64-3-135-6s-165-8-209-11c-141-10-365-24-550-35
		c-99-6-241-15-315-21c-74-5-173-12-220-14c-47-3-105-7-130-10c-25-2-131-9-235-15c-105-6-217-13-250-16s-107-7-165-10
		c-58-2-119-7-135-9c-17-3-93-8-170-11c-122-5-153-3-240,16c-55,12-118,26-140,30c-40,8-156,38-250,65c-28,8-75,19-105,26
		c-30,6-82,20-115,30s-78,21-100,24c-22,4-55,11-73,17c-18,5-43,11-55,13c-19,3-294,70-337,82c-30,9,13,20,135,37
		c66,9,142,21,170,26c27,5,93,12,145,15c52,4,121,13,152,20s59,11,61,9c3-3,49,2,103,10c55,8,128,18,163,21c36,3,68,8,73,11
		c4,3,63,10,130,15c145,12,159,13,221,28c26,6,91,16,145,21c53,5,146,17,207,25c60,9,150,20,200,25c49,4,113,13,142,19
		s121,17,205,26s184,23,223,30c38,8,101,17,140,20c62,5,248,29,315,41c14,2,79,11,145,19s147,21,180,29s86,19,117,26
		c62,12,93,35,63,47c-21,7-225-12-335-32c-41-8-122-19-180-25c-57-6-107-13-110-15c-4-2-33-7-66-10c-32-3-84-10-114-15
		s-107-16-170-24c-63-9-131-17-150-20s-55-8-80-11c-103-13-321-47-397-61c-45-9-86-13-90-11c-5,3-40-1-78-8c-39-7-93-15-120-18
		c-28-3-106-14-175-25s-186-28-260-37s-173-22-220-31c-47-8-105-14-130-14s-65-5-90-11s-56-12-70-14s-77-10-140-19s-169-23-235-31
		s-165-21-220-29c-137-19-239-10-338,29c-10,4-66,18-125,32c-95,21-138,30-272,58c-19,4-62,16-95,27s-92,26-130,33
		c-39,7-95,20-125,29s-78,21-105,27c-28,6-118,28-200,49c-83,21-186,46-229,55s-104,24-135,34s-85,26-121,35c-36,10-103,28-150,41
		c-279,76-388,105-415,111c-17,3-64,16-105,29c-41,12-129,37-195,55c-149,39-277,75-375,105c-41,13-86,25-100,28s-95,23-180,45
		c-215,57-218,58-280,71c-30,7-98,25-150,41s-123,37-158,46c-67,18-127,61-114,80c8,13,93,44,119,44c31,0,168,52,230,88
		c97,56,80,66-47,27c-132-40-259-55-459-55c-151,0-245,11-311,37c-8,4-17,7-20,8s-19,7-35,14c-17,7-59,23-95,37s-88,34-115,45
		c-150,62-266,106-355,134c-45,14-274,101-355,134c-11,5-45,16-75,26c-61,19-168,60-215,80c-17,7-73,28-125,46s-127,45-165,61
		c-39,16-97,38-130,49s-89,31-125,46c-137,55-550,197-655,224c-68,18-158,33-234,39c-68,5-125,11-127,13C412,4080,365,4079,361,4071
		z M3982,2806c23-8,72-19,110-25c37-7,124-30,193-51c69-22,179-51,245-65c66-15,163-39,215-55c146-45,369-106,430-119
		c104-22,145-33,215-56c38-12,106-30,150-40c74-16,271-69,305-82c8-3,25-8,36-10c12-2,55-13,95-24c41-11,90-24,109-29
		c164-38,366-90,470-121c193-55,468-125,605-153c66-14,149-34,185-45c36-12,72-21,80-21c31,0,92-22,84-30c-5-4-32-10-59-13
		c-28-3-70-10-95-16c-25-5-110-17-189-26c-79-8-147-18-151-20c-8-5-37-9-185-25c-98-10-118-7-285,52c-47,16-108,35-135,42
		c-28,8-66,20-85,29c-19,8-64,24-100,35c-310,99-488,166-665,252c-44,21-123,53-175,70c-52,18-109,38-125,45c-17,7-71,27-122,44
		s-114,41-140,52c-54,23-93,37-203,69c-112,33-346,109-425,137c-39,14-99,34-134,44s-68,22-75,28c-6,5-56,25-111,45
		c-122,45-181,72-190,86S3930,2822,3982,2806z M7775,1829c41-12,95-24,120-29c25-4,56-13,70-18c46-19,133-44,200-57
		c72-14,200-46,300-75c36-10,92-24,125-30c33-7,85-20,115-30s74-23,97-29c24-7,43-15,43-20c0-4-69-11-153-15c-135-5-361-15-702-31
		c-61-2-184-7-275-11l-165-6l-110,37c-61,20-124,43-140,50c-17,7-84,32-150,55s-138,50-160,60s-60,23-85,30c-25,8-49,17-54,21
		c-10,8-8,9,224,39c91,12,203,28,250,36c47,9,112,19,145,24C7610,1850,7697,1850,7775,1829z M6712,1695c28-13,80-29,114-35
		c35-7,73-17,84-23c20-11,250-92,363-128c70-22,74-38,9-37c-23,1-89-2-147-5c-58-4-155-9-215-12c-100-5-168-9-340-20
		c-313-19-639-25-820-15c-117,7-632-9-840-25c-304-24-478-35-585-36c-260-3-342-1-354,11c-6,6-4,11,5,14c8,2,29,9,48,15s48,11,65,11
		s73,9,125,20s126,20,164,20c66,0,137,9,348,45c47,8,115,15,150,15s82,4,104,9s80,12,130,16c49,3,130,12,180,20c49,8,142,20,205,25
		c63,6,140,15,170,20s138,19,239,30c102,11,194,22,205,25c12,2,48,6,81,9s127,15,210,26C6638,1723,6652,1723,6712,1695z"/>
</g>
</svg>
