<?xml version="1.0" encoding="utf-8"?>
<!-- Generator: Adobe Illustrator 25.2.0, SVG Export Plug-In . SVG Version: 6.00 Build 0)  -->
<svg version="1.1" id="レイヤー_1" xmlns="http://www.w3.org/2000/svg" xmlns:xlink="http://www.w3.org/1999/xlink" x="0px"
	 y="0px" viewBox="0 0 124.7 1038.7" style="enable-background:new 0 0 124.7 1038.7;" xml:space="preserve">
<style type="text/css">
	.st0{fill:#765F4D;}
</style>
<g transform="translate(0.000000,160.000000) scale(0.100000,-0.100000)">
	<path class="st0" d="M5,981.8c2-19,10-87,18-150s17-146,20-185c3-38,7-86,10-105c11-86,27-230,31-280c3-30,9-93,15-140
		c15-128,18-159,25-230c3-36,10-94,15-130c10-62,16-116,38-330c6-52,15-126,21-165c6-38,15-115,20-170c6-55,15-143,20-195
		c6-52,13-128,15-168c3-40,7-87,11-105c3-18,7-43,9-57c1-14,6-45,9-70s8-83,11-129c4-47,8-87,10-90s6-42,9-86c4-44,11-118,17-165
		c5-47,10-98,10-115c1-16,6-64,11-105c6-41,12-91,13-110c2-19,8-66,15-105c6-38,13-104,16-145c2-41,9-102,14-135c5-33,12-103,16-155
		c3-52,8-99,11-104c3-4,7-25,8-45c8-133,18-233,26-279c11-56,16-105,24-242c3-47,10-139,15-205s12-156,15-200s9-111,14-150
		c5-38,9-77,9-85c0-17,20-310,27-380c2-25,9-112,15-195c11-147,38-441,47-500c2-16,6-59,8-95s6-102,10-148c14-165-35-188-118-57
		c-40,63-133,156-201,200c-25,17-26,17-26-3c0-12,9-27,20-35c46-32,204-284,214-341c4-23,29-91,36-101c5-5,19-39,32-75
		c25-71,25-71,13-650c-3-124-7-346-10-495c-2-148-7-394-11-545c-8-330-8-748,1-845c7-79,29-181,51-240c9-22,15-41,14-43
		c-1-1,1-20,5-42c15-89,56-51,81,75c6,30,13,493,19,1315c10,1227,12,1318,31,1380c41,138,153,293,328,454c87,80,126,130,112,143
		c-12,12-203-102-235-141c-7-9-17-16-22-16s-26-18-46-41c-44-47-101-75-117-59c-8,8-12,239-13,748c-1,405-2,949-3,1209s1,476,4,482
		c7,11,19,325,18,476c-1,61-3,517-6,1015c-5,925-9,1278-21,1640c-4,113-8,273-10,355c-23,1022-29,1169-52,1248c-12,42-21,57-32,55
		c-14-3-16-36-15-258c1-304,11-730,29-1190c3-69,8-249,10-400c3-151,8-320,11-375c6-122,14-1048,13-1385c-2-238,0-669,4-1325
		c1-294-3-408-18-475c-3-14-5-232-4-485c4-1111,1-1215-31-1130c-15,39-42,250-45,350c-2,72-18,232-32,325c-3,19-6,67-8,105
		c-1,39-5,90-8,115c-4,25-9,96-12,158c-4,63-8,121-10,130c-12,65-16,110-20,207c-3,61-7,119-9,130c-5,26-17,147-31,310
		c-2,28-6,73-9,100c-3,28-10,111-17,185c-6,74-12,141-14,150c-2,8-6,56-10,105c-3,50-8,104-10,120c-2,17-6,75-10,130
		c-3,55-8,118-10,140c-16,142-27,228-35,280c-8,51-17,133-35,335c-2,19-10,89-19,155s-23,197-32,290c-32,352-41,452-54,555
		c-6,41-12,116-14,165c-2,50-7,102-10,117c-3,15-11,78-17,140c-5,62-15,156-20,208c-6,52-12,118-14,145c-3,47-17,174-20,185
		c-1,3-5,50-9,105c-9,126-11,146-31,335c-9,85-18,172-20,194c-2,21-6,57-9,80c-4,22-11,84-16,136s-11,106-14,120c-2,14-12,69-21,122
		c-19,105-37,145-55,118C-1,1107.8-3,1055.8,5,981.8z"/>
</g>
</svg>
